<svg xmlns="http://www.w3.org/2000/svg" xmlns:xlink="http://www.w3.org/1999/xlink" width="1080" zoomAndPan="magnify" viewBox="0 0 810 809.999993" height="1080" preserveAspectRatio="xMidYMid meet" version="1.0"><defs><g/><clipPath id="6d41ba4c9a"><path d="M 41.394531 313.558594 L 263.242188 313.558594 L 263.242188 535.402344 L 41.394531 535.402344 Z M 41.394531 313.558594 " clip-rule="nonzero"/></clipPath><clipPath id="e41a8ff2b9"><path d="M 152.316406 313.558594 C 91.054688 313.558594 41.394531 363.21875 41.394531 424.480469 C 41.394531 485.742188 91.054688 535.402344 152.316406 535.402344 C 213.578125 535.402344 263.242188 485.742188 263.242188 424.480469 C 263.242188 363.21875 213.578125 313.558594 152.316406 313.558594 Z M 152.316406 313.558594 " clip-rule="nonzero"/></clipPath><clipPath id="d7c9781920"><path d="M 0.394531 0.558594 L 222.242188 0.558594 L 222.242188 222.402344 L 0.394531 222.402344 Z M 0.394531 0.558594 " clip-rule="nonzero"/></clipPath><clipPath id="e574389203"><path d="M 111.316406 0.558594 C 50.054688 0.558594 0.394531 50.21875 0.394531 111.480469 C 0.394531 172.742188 50.054688 222.402344 111.316406 222.402344 C 172.578125 222.402344 222.242188 172.742188 222.242188 111.480469 C 222.242188 50.21875 172.578125 0.558594 111.316406 0.558594 Z M 111.316406 0.558594 " clip-rule="nonzero"/></clipPath><clipPath id="22b3fc9033"><rect x="0" width="223" y="0" height="223"/></clipPath><clipPath id="78da713c7f"><path d="M 84 366.578125 L 172 366.578125 L 172 491 L 84 491 Z M 84 366.578125 " clip-rule="nonzero"/></clipPath><clipPath id="5464efb84d"><path d="M 159 366.578125 L 187.402344 366.578125 L 187.402344 388 L 159 388 Z M 159 366.578125 " clip-rule="nonzero"/></clipPath><clipPath id="e25bc30eef"><path d="M 68 465 L 145 465 L 145 491.078125 L 68 491.078125 Z M 68 465 " clip-rule="nonzero"/></clipPath><clipPath id="8c80291f47"><path d="M 56.902344 402 L 110 402 L 110 456 L 56.902344 456 Z M 56.902344 402 " clip-rule="nonzero"/></clipPath><clipPath id="ecd551d2c4"><path d="M 161.5 419 L 170 419 L 170 439 L 161.5 439 Z M 161.5 419 " clip-rule="nonzero"/></clipPath><clipPath id="3787f0f342"><path d="M 236 419 L 244.75 419 L 244.75 439 L 236 439 Z M 236 419 " clip-rule="nonzero"/></clipPath><clipPath id="96cea5ced9"><path d="M 206 393.855469 L 215 393.855469 L 215 463.605469 L 206 463.605469 Z M 206 393.855469 " clip-rule="nonzero"/></clipPath><clipPath id="1546904e0d"><rect x="0" width="506" y="0" height="127"/></clipPath><clipPath id="eac14bde02"><rect x="0" width="323" y="0" height="47"/></clipPath></defs><rect x="-81" width="972" fill="#ffffff" y="-80.999999" height="971.999992" fill-opacity="1"/><rect x="-81" width="972" fill="#ffffff" y="-80.999999" height="971.999992" fill-opacity="1"/><g clip-path="url(#6d41ba4c9a)"><g clip-path="url(#e41a8ff2b9)"><g transform="matrix(1, 0, 0, 1, 41, 313)"><g clip-path="url(#22b3fc9033)"><g clip-path="url(#d7c9781920)"><g clip-path="url(#e574389203)"><path fill="#ffc422" d="M 0.394531 0.558594 L 222.242188 0.558594 L 222.242188 222.402344 L 0.394531 222.402344 Z M 0.394531 0.558594 " fill-opacity="1" fill-rule="nonzero"/></g></g></g></g></g></g><g clip-path="url(#78da713c7f)"><path fill="#000002" d="M 142.4375 490.925781 C 141.289062 490.925781 140.296875 490.085938 140.144531 488.863281 C 140.066406 487.636719 140.984375 486.492188 142.207031 486.339844 C 151.910156 485.34375 159.246094 477.167969 159.246094 467.386719 L 159.246094 384.765625 C 159.246094 383.46875 160.238281 382.472656 161.539062 382.472656 C 162.761719 382.472656 163.828125 383.46875 163.828125 384.765625 L 163.828125 467.386719 C 163.828125 479.460938 154.738281 489.625 142.664062 490.925781 C 142.589844 490.925781 142.511719 490.925781 142.4375 490.925781 Z M 86.585938 469.679688 C 85.285156 469.679688 84.292969 468.609375 84.292969 467.386719 L 84.292969 452.710938 C 84.292969 451.488281 85.285156 450.417969 86.585938 450.417969 C 87.808594 450.417969 88.875 451.488281 88.875 452.710938 L 88.875 467.386719 C 88.875 468.609375 87.808594 469.679688 86.585938 469.679688 Z M 86.585938 407.160156 C 85.285156 407.160156 84.292969 406.167969 84.292969 404.867188 L 84.292969 381.25 C 84.292969 373.152344 90.863281 366.578125 98.960938 366.578125 L 169.179688 366.578125 C 170.476562 366.578125 171.46875 367.570312 171.46875 368.871094 C 171.46875 370.09375 170.476562 371.164062 169.179688 371.164062 L 98.960938 371.164062 C 93.382812 371.164062 88.875 375.671875 88.875 381.25 L 88.875 404.867188 C 88.875 406.167969 87.808594 407.160156 86.585938 407.160156 Z M 86.585938 407.160156 " fill-opacity="1" fill-rule="evenodd"/></g><g clip-path="url(#5464efb84d)"><path fill="#000002" d="M 185.070312 387.058594 L 161.539062 387.058594 C 160.238281 387.058594 159.246094 385.992188 159.246094 384.765625 L 159.246094 376.820312 C 159.246094 371.164062 163.828125 366.578125 169.484375 366.578125 L 177.125 366.578125 C 182.777344 366.578125 187.363281 371.164062 187.363281 376.820312 L 187.363281 384.765625 C 187.363281 385.992188 186.292969 387.058594 185.070312 387.058594 Z M 163.828125 382.472656 L 182.777344 382.472656 L 182.777344 376.820312 C 182.777344 373.683594 180.179688 371.164062 177.125 371.164062 L 169.484375 371.164062 C 166.351562 371.164062 163.828125 373.683594 163.828125 376.820312 Z M 163.828125 382.472656 " fill-opacity="1" fill-rule="evenodd"/></g><g clip-path="url(#e25bc30eef)"><path fill="#000002" d="M 142.589844 491.078125 L 92.316406 491.078125 C 79.25 491.078125 68.628906 480.453125 68.628906 467.386719 C 68.628906 466.085938 69.621094 465.09375 70.921875 465.09375 L 142.589844 465.09375 C 143.507812 465.09375 144.269531 465.628906 144.652344 466.46875 C 145.035156 467.308594 144.882812 468.226562 144.269531 468.914062 C 138.539062 475.257812 138.464844 480.988281 144.039062 487.027344 C 144.574219 487.410156 144.882812 488.097656 144.882812 488.785156 C 144.882812 490.007812 143.886719 491.078125 142.589844 491.078125 Z M 73.367188 469.679688 C 74.511719 479.15625 82.535156 486.492188 92.316406 486.492188 L 137.851562 486.492188 C 134.414062 480.988281 134.492188 475.257812 137.929688 469.679688 Z M 73.367188 469.679688 " fill-opacity="1" fill-rule="evenodd"/></g><g clip-path="url(#8c80291f47)"><path fill="#000002" d="M 83.375 455.234375 C 68.78125 455.234375 56.941406 443.386719 56.941406 428.789062 C 56.941406 414.269531 68.78125 402.421875 83.375 402.421875 C 97.890625 402.421875 109.734375 414.269531 109.734375 428.789062 C 109.734375 443.386719 97.890625 455.234375 83.375 455.234375 Z M 83.375 407.007812 C 71.304688 407.007812 61.523438 416.789062 61.523438 428.789062 C 61.523438 440.863281 71.304688 450.648438 83.375 450.648438 C 95.371094 450.648438 105.152344 440.863281 105.152344 428.789062 C 105.152344 416.789062 95.371094 407.007812 83.375 407.007812 Z M 83.375 407.007812 " fill-opacity="1" fill-rule="evenodd"/></g><path fill="#000002" d="M 78.792969 438.648438 C 78.257812 438.648438 77.644531 438.417969 77.1875 437.960938 L 71.304688 432 C 70.386719 431.160156 70.386719 429.707031 71.304688 428.789062 C 72.144531 427.871094 73.597656 427.871094 74.511719 428.789062 L 78.792969 433.070312 L 92.238281 419.695312 C 93.078125 418.777344 94.53125 418.777344 95.449219 419.695312 C 96.363281 420.613281 96.363281 422.0625 95.449219 422.90625 L 80.394531 437.960938 C 80.015625 438.417969 79.402344 438.648438 78.792969 438.648438 Z M 78.792969 438.648438 " fill-opacity="1" fill-rule="evenodd"/><path fill="#000002" d="M 147.25 386.753906 L 108.511719 386.753906 C 107.214844 386.753906 106.21875 385.683594 106.21875 384.460938 C 106.21875 383.164062 107.214844 382.167969 108.511719 382.167969 L 147.25 382.167969 C 148.472656 382.167969 149.542969 383.164062 149.542969 384.460938 C 149.542969 385.683594 148.472656 386.753906 147.25 386.753906 Z M 147.25 386.753906 " fill-opacity="1" fill-rule="evenodd"/><path fill="#000002" d="M 147.25 400.207031 L 108.511719 400.207031 C 107.214844 400.207031 106.21875 399.136719 106.21875 397.914062 C 106.21875 396.613281 107.214844 395.621094 108.511719 395.621094 L 147.25 395.621094 C 148.472656 395.621094 149.542969 396.613281 149.542969 397.914062 C 149.542969 399.136719 148.472656 400.207031 147.25 400.207031 Z M 147.25 400.207031 " fill-opacity="1" fill-rule="evenodd"/><path fill="#000002" d="M 147.25 413.65625 L 120.355469 413.65625 C 119.132812 413.65625 118.0625 412.664062 118.0625 411.363281 C 118.0625 410.140625 119.132812 409.070312 120.355469 409.070312 L 147.25 409.070312 C 148.472656 409.070312 149.542969 410.140625 149.542969 411.363281 C 149.542969 412.664062 148.472656 413.65625 147.25 413.65625 Z M 147.25 413.65625 " fill-opacity="1" fill-rule="evenodd"/><path fill="#000002" d="M 147.25 427.183594 L 120.355469 427.183594 C 119.132812 427.183594 118.0625 426.113281 118.0625 424.890625 C 118.0625 423.59375 119.132812 422.597656 120.355469 422.597656 L 147.25 422.597656 C 148.472656 422.597656 149.542969 423.59375 149.542969 424.890625 C 149.542969 426.113281 148.472656 427.183594 147.25 427.183594 Z M 147.25 427.183594 " fill-opacity="1" fill-rule="evenodd"/><path fill="#000002" d="M 147.25 440.636719 L 120.355469 440.636719 C 119.132812 440.636719 118.0625 439.566406 118.0625 438.34375 C 118.0625 437.042969 119.132812 436.050781 120.355469 436.050781 L 147.25 436.050781 C 148.472656 436.050781 149.542969 437.042969 149.542969 438.34375 C 149.542969 439.566406 148.472656 440.636719 147.25 440.636719 Z M 147.25 440.636719 " fill-opacity="1" fill-rule="evenodd"/><path fill="#000002" d="M 147.25 454.085938 L 108.511719 454.085938 C 107.214844 454.085938 106.21875 453.09375 106.21875 451.792969 C 106.21875 450.570312 107.214844 449.5 108.511719 449.5 L 147.25 449.5 C 148.472656 449.5 149.542969 450.570312 149.542969 451.792969 C 149.542969 453.09375 148.472656 454.085938 147.25 454.085938 Z M 147.25 454.085938 " fill-opacity="1" fill-rule="evenodd"/><g clip-path="url(#ecd551d2c4)"><path fill="#000002" d="M 165.628906 438.132812 C 163.386719 438.132812 161.574219 436.320312 161.574219 434.082031 L 161.574219 423.746094 C 161.574219 421.507812 163.386719 419.691406 165.628906 419.691406 C 167.867188 419.691406 169.679688 421.507812 169.679688 423.746094 L 169.679688 434.082031 C 169.679688 436.320312 167.867188 438.132812 165.628906 438.132812 " fill-opacity="1" fill-rule="nonzero"/></g><path fill="#000002" d="M 180.015625 451.410156 C 177.777344 451.410156 175.964844 449.59375 175.964844 447.355469 L 175.964844 410.46875 C 175.964844 408.234375 177.777344 406.417969 180.015625 406.417969 C 182.253906 406.417969 184.070312 408.234375 184.070312 410.46875 L 184.070312 447.355469 C 184.070312 449.59375 182.253906 451.410156 180.015625 451.410156 " fill-opacity="1" fill-rule="nonzero"/><path fill="#000002" d="M 194.40625 440.160156 C 192.167969 440.160156 190.351562 438.347656 190.351562 436.109375 L 190.351562 421.71875 C 190.351562 419.480469 192.167969 417.664062 194.40625 417.664062 C 196.644531 417.664062 198.457031 419.480469 198.457031 421.71875 L 198.457031 436.109375 C 198.457031 438.347656 196.644531 440.160156 194.40625 440.160156 " fill-opacity="1" fill-rule="nonzero"/><g clip-path="url(#3787f0f342)"><path fill="#000002" d="M 241.019531 419.691406 C 243.257812 419.691406 245.074219 421.507812 245.074219 423.746094 L 245.074219 434.082031 C 245.074219 436.320312 243.257812 438.132812 241.019531 438.132812 C 238.78125 438.132812 236.964844 436.320312 236.964844 434.082031 L 236.964844 423.746094 C 236.964844 421.507812 238.78125 419.691406 241.019531 419.691406 " fill-opacity="1" fill-rule="nonzero"/></g><path fill="#000002" d="M 226.628906 409.152344 C 228.867188 409.152344 230.683594 410.96875 230.683594 413.207031 L 230.683594 444.617188 C 230.683594 446.859375 228.867188 448.671875 226.628906 448.671875 C 224.390625 448.671875 222.574219 446.859375 222.574219 444.617188 L 222.574219 413.207031 C 222.574219 410.96875 224.390625 409.152344 226.628906 409.152344 " fill-opacity="1" fill-rule="nonzero"/><g clip-path="url(#96cea5ced9)"><path fill="#000002" d="M 210.515625 463.976562 C 208.28125 463.976562 206.464844 462.160156 206.464844 459.921875 L 206.464844 397.90625 C 206.464844 395.667969 208.28125 393.851562 210.515625 393.851562 C 212.757812 393.851562 214.570312 395.667969 214.570312 397.90625 L 214.570312 459.921875 C 214.570312 462.160156 212.757812 463.976562 210.515625 463.976562 " fill-opacity="1" fill-rule="nonzero"/></g><g transform="matrix(1, 0, 0, 1, 285, 348)"><g clip-path="url(#1546904e0d)"><g fill="#0d0d0d" fill-opacity="1"><g transform="translate(1.084274, 99.056492)"><g><path d="M 9 25 L 11.5 10.375 C 13.332031 11.375 15.207031 11.875 17.125 11.875 C 20.375 11.875 22.707031 9.914062 24.125 6 L 26.125 0.5 L 0.625 -62 L 18.5 -62 L 34.5 -21.75 L 49.75 -62 L 67.625 -62 L 38.125 11.25 C 35.957031 16.582031 33.226562 20.4375 29.9375 22.8125 C 26.644531 25.1875 22.539062 26.375 17.625 26.375 C 14.375 26.375 11.5 25.914062 9 25 Z M 9 25 "/></g></g></g><g fill="#0d0d0d" fill-opacity="1"><g transform="translate(66.579458, 99.056492)"><g><path d="M 5.375 -17.625 C 5.375 -23.375 7.351562 -27.957031 11.3125 -31.375 C 15.269531 -34.789062 20.664062 -37.039062 27.5 -38.125 L 46.125 -41 L 46.125 -43.375 C 46.125 -49.625 42.332031 -52.75 34.75 -52.75 C 31.332031 -52.75 28.625 -52.101562 26.625 -50.8125 C 24.625 -49.519531 23.625 -47.832031 23.625 -45.75 C 23.625 -45.414062 23.707031 -44.914062 23.875 -44.25 L 9.75 -39.5 C 9 -41.164062 8.625 -42.914062 8.625 -44.75 C 8.625 -49.832031 11.039062 -54.269531 15.875 -58.0625 C 20.707031 -61.851562 27 -63.75 34.75 -63.75 C 52.832031 -63.75 61.875 -56.25 61.875 -41.25 L 61.875 -15.375 C 61.875 -9.289062 63.25 -4.164062 66 0 L 50 0 C 48 -2.5 47 -5.789062 47 -9.875 C 42.582031 -2.125 35.664062 1.75 26.25 1.75 C 20.082031 1.75 15.0625 -0.0195312 11.1875 -3.5625 C 7.3125 -7.101562 5.375 -11.789062 5.375 -17.625 Z M 46.125 -29 L 46.125 -30.125 L 31.125 -27.625 C 24.207031 -26.457031 20.75 -23.414062 20.75 -18.5 C 20.75 -16.082031 21.582031 -14.226562 23.25 -12.9375 C 24.914062 -11.644531 27.164062 -11 30 -11 C 34.832031 -11 38.726562 -12.582031 41.6875 -15.75 C 44.644531 -18.914062 46.125 -23.332031 46.125 -29 Z M 46.125 -29 "/></g></g></g><g fill="#0d0d0d" fill-opacity="1"><g transform="translate(136.324352, 99.056492)"><g><path d="M 7.875 25.5 L 7.875 -62 L 23.625 -62 L 23.625 -53.125 C 25.875 -56.375 28.914062 -58.957031 32.75 -60.875 C 36.582031 -62.789062 40.707031 -63.75 45.125 -63.75 C 53.207031 -63.75 59.976562 -60.769531 65.4375 -54.8125 C 70.894531 -48.851562 73.625 -40.914062 73.625 -31 C 73.625 -21.332031 70.75 -13.457031 65 -7.375 C 59.25 -1.289062 52.164062 1.75 43.75 1.75 C 35.25 1.75 28.539062 -1.375 23.625 -7.625 L 23.625 25.5 Z M 52.625 -18.125 C 55.957031 -21.539062 57.625 -25.832031 57.625 -31 C 57.625 -36.164062 55.957031 -40.414062 52.625 -43.75 C 49.289062 -47.25 45.125 -49 40.125 -49 C 35.207031 -49 31.039062 -47.25 27.625 -43.75 C 24.289062 -40.414062 22.625 -36.164062 22.625 -31 C 22.625 -25.832031 24.289062 -21.539062 27.625 -18.125 C 31.039062 -14.707031 35.207031 -13 40.125 -13 C 45.039062 -13 49.207031 -14.707031 52.625 -18.125 Z M 52.625 -18.125 "/></g></g></g><g fill="#0d0d0d" fill-opacity="1"><g transform="translate(214.318689, 99.056492)"><g><path d="M 7.875 0 L 7.875 -62 L 23.625 -62 L 23.625 -53.75 C 27.875 -60.414062 33.875 -63.75 41.625 -63.75 C 50.289062 -63.75 56.039062 -60.207031 58.875 -53.125 C 63.289062 -60.207031 69.875 -63.75 78.625 -63.75 C 84.875 -63.75 89.769531 -61.9375 93.3125 -58.3125 C 96.851562 -54.6875 98.625 -49.707031 98.625 -43.375 L 98.625 0 L 82.875 0 L 82.875 -38.375 C 82.875 -46.125 79.625 -50 73.125 -50 C 69.457031 -50 66.539062 -48.644531 64.375 -45.9375 C 62.207031 -43.226562 61.125 -39.414062 61.125 -34.5 L 61.125 0 L 45.375 0 L 45.375 -38.125 C 45.375 -46.039062 42.039062 -50 35.375 -50 C 32.039062 -50 29.25 -48.625 27 -45.875 C 24.75 -43.125 23.625 -39.414062 23.625 -34.75 L 23.625 0 Z M 7.875 0 "/></g></g></g><g fill="#0d0d0d" fill-opacity="1"><g transform="translate(319.436023, 99.056492)"><g><path d="M 5.375 -17.625 C 5.375 -23.375 7.351562 -27.957031 11.3125 -31.375 C 15.269531 -34.789062 20.664062 -37.039062 27.5 -38.125 L 46.125 -41 L 46.125 -43.375 C 46.125 -49.625 42.332031 -52.75 34.75 -52.75 C 31.332031 -52.75 28.625 -52.101562 26.625 -50.8125 C 24.625 -49.519531 23.625 -47.832031 23.625 -45.75 C 23.625 -45.414062 23.707031 -44.914062 23.875 -44.25 L 9.75 -39.5 C 9 -41.164062 8.625 -42.914062 8.625 -44.75 C 8.625 -49.832031 11.039062 -54.269531 15.875 -58.0625 C 20.707031 -61.851562 27 -63.75 34.75 -63.75 C 52.832031 -63.75 61.875 -56.25 61.875 -41.25 L 61.875 -15.375 C 61.875 -9.289062 63.25 -4.164062 66 0 L 50 0 C 48 -2.5 47 -5.789062 47 -9.875 C 42.582031 -2.125 35.664062 1.75 26.25 1.75 C 20.082031 1.75 15.0625 -0.0195312 11.1875 -3.5625 C 7.3125 -7.101562 5.375 -11.789062 5.375 -17.625 Z M 46.125 -29 L 46.125 -30.125 L 31.125 -27.625 C 24.207031 -26.457031 20.75 -23.414062 20.75 -18.5 C 20.75 -16.082031 21.582031 -14.226562 23.25 -12.9375 C 24.914062 -11.644531 27.164062 -11 30 -11 C 34.832031 -11 38.726562 -12.582031 41.6875 -15.75 C 44.644531 -18.914062 46.125 -23.332031 46.125 -29 Z M 46.125 -29 "/></g></g></g><g fill="#0d0d0d" fill-opacity="1"><g transform="translate(387.556009, 99.056492)"><g><path d="M 12.625 -18 L 12.625 -49.25 L 3 -49.25 L 3 -62 L 12.625 -62 L 12.625 -78.75 L 28.375 -78.75 L 28.375 -62 L 41.875 -62 L 41.875 -49.25 L 28.375 -49.25 L 28.375 -21 C 28.375 -15.164062 31 -12.25 36.25 -12.25 C 38.082031 -12.25 39.832031 -12.5 41.5 -13 L 43 0 C 39.75 1.164062 36.25 1.75 32.5 1.75 C 19.25 1.75 12.625 -4.832031 12.625 -18 Z M 12.625 -18 "/></g></g></g><g fill="#0d0d0d" fill-opacity="1"><g transform="translate(431.802749, 99.056492)"><g><path d="M 4.375 -31 C 4.375 -40.5 7.519531 -48.332031 13.8125 -54.5 C 20.101562 -60.664062 27.832031 -63.75 37 -63.75 C 45.832031 -63.75 53.082031 -60.851562 58.75 -55.0625 C 64.414062 -49.269531 67.25 -41.832031 67.25 -32.75 L 67.25 -27.25 L 19.5 -27.25 C 20 -22.5 21.789062 -18.726562 24.875 -15.9375 C 27.957031 -13.144531 31.832031 -11.75 36.5 -11.75 C 44.082031 -11.75 49.789062 -15.539062 53.625 -23.125 L 65.375 -16.375 C 59.457031 -4.289062 49.75 1.75 36.25 1.75 C 27.5 1.914062 19.957031 -1.164062 13.625 -7.5 C 7.289062 -13.832031 4.207031 -21.664062 4.375 -31 Z M 19.75 -39.25 L 52.625 -39.25 C 51.875 -43.164062 50.082031 -46.226562 47.25 -48.4375 C 44.414062 -50.644531 40.832031 -51.75 36.5 -51.75 C 32.582031 -51.75 29.101562 -50.601562 26.0625 -48.3125 C 23.019531 -46.019531 20.914062 -43 19.75 -39.25 Z M 19.75 -39.25 "/></g></g></g></g></g><g transform="matrix(1, 0, 0, 1, 462, 456)"><g clip-path="url(#eac14bde02)"><g fill="#000002" fill-opacity="1"><g transform="translate(0.71289, 35.504761)"><g><path d="M 9.40625 0 L 0.359375 -22.515625 L 4.265625 -22.515625 L 11.21875 -4.359375 L 18.15625 -22.515625 L 22.0625 -22.515625 L 13.03125 0 Z M 9.40625 0 "/></g></g></g><g fill="#000002" fill-opacity="1"><g transform="translate(22.374803, 35.504761)"><g><path d="M 5.234375 -2.609375 C 2.953125 -4.773438 1.8125 -7.660156 1.8125 -11.265625 C 1.8125 -14.867188 2.953125 -17.75 5.234375 -19.90625 C 7.523438 -22.070312 10.304688 -23.15625 13.578125 -23.15625 C 16.847656 -23.15625 19.628906 -22.070312 21.921875 -19.90625 C 24.222656 -17.75 25.375 -14.867188 25.375 -11.265625 C 25.375 -7.660156 24.222656 -4.773438 21.921875 -2.609375 C 19.628906 -0.441406 16.847656 0.640625 13.578125 0.640625 C 10.304688 0.640625 7.523438 -0.441406 5.234375 -2.609375 Z M 19.359375 -5.09375 C 20.921875 -6.71875 21.703125 -8.769531 21.703125 -11.25 C 21.703125 -13.738281 20.921875 -15.789062 19.359375 -17.40625 C 17.804688 -19.03125 15.878906 -19.84375 13.578125 -19.84375 C 11.304688 -19.84375 9.390625 -19.03125 7.828125 -17.40625 C 6.273438 -15.789062 5.5 -13.738281 5.5 -11.25 C 5.5 -8.769531 6.273438 -6.71875 7.828125 -5.09375 C 9.390625 -3.476562 11.304688 -2.671875 13.578125 -2.671875 C 15.878906 -2.671875 17.804688 -3.476562 19.359375 -5.09375 Z M 19.359375 -5.09375 "/></g></g></g><g fill="#000002" fill-opacity="1"><g transform="translate(49.350025, 35.504761)"><g><path d="M 3.265625 0 L 3.265625 -22.515625 L 6.90625 -22.515625 L 6.90625 0 Z M 2.90625 -26.46875 L 2.90625 -30.875 L 7.21875 -30.875 L 7.21875 -26.46875 Z M 2.90625 -26.46875 "/></g></g></g><g fill="#000002" fill-opacity="1"><g transform="translate(59.295439, 35.504761)"><g><path d="M 1.8125 -11.265625 C 1.78125 -14.617188 2.914062 -17.453125 5.21875 -19.765625 C 7.519531 -22.085938 10.226562 -23.21875 13.34375 -23.15625 C 18.007812 -23.15625 21.265625 -21.265625 23.109375 -17.484375 L 20.15625 -15.671875 C 18.675781 -18.421875 16.421875 -19.796875 13.390625 -19.796875 C 11.148438 -19.796875 9.28125 -19.007812 7.78125 -17.4375 C 6.289062 -15.863281 5.546875 -13.804688 5.546875 -11.265625 C 5.546875 -8.742188 6.285156 -6.6875 7.765625 -5.09375 C 9.242188 -3.507812 11.117188 -2.71875 13.390625 -2.71875 C 16.359375 -2.71875 18.675781 -4.097656 20.34375 -6.859375 L 23.109375 -5.078125 C 20.929688 -1.265625 17.675781 0.640625 13.34375 0.640625 C 10.050781 0.640625 7.304688 -0.476562 5.109375 -2.71875 C 2.910156 -4.957031 1.8125 -7.804688 1.8125 -11.265625 Z M 1.8125 -11.265625 "/></g></g></g><g fill="#000002" fill-opacity="1"><g transform="translate(83.682128, 35.504761)"><g><path d="M 1.8125 -11.265625 C 1.78125 -14.648438 2.878906 -17.492188 5.109375 -19.796875 C 7.335938 -22.097656 10.023438 -23.21875 13.171875 -23.15625 C 16.441406 -23.15625 19.054688 -22.109375 21.015625 -20.015625 C 22.984375 -17.929688 23.96875 -15.222656 23.96875 -11.890625 L 23.96875 -10.671875 L 5.40625 -10.671875 C 5.550781 -8.273438 6.304688 -6.320312 7.671875 -4.8125 C 9.097656 -3.269531 10.914062 -2.5 13.125 -2.5 C 16.539062 -2.5 19.035156 -4.175781 20.609375 -7.53125 L 23.34375 -5.953125 C 21.1875 -1.554688 17.734375 0.640625 12.984375 0.640625 C 9.867188 0.640625 7.226562 -0.484375 5.0625 -2.734375 C 2.894531 -4.992188 1.8125 -7.835938 1.8125 -11.265625 Z M 5.40625 -13.625 L 20.296875 -13.625 C 20.171875 -15.65625 19.4375 -17.257812 18.09375 -18.4375 C 16.75 -19.613281 15.09375 -20.203125 13.125 -20.203125 C 11.21875 -20.203125 9.546875 -19.582031 8.109375 -18.34375 C 6.671875 -17.101562 5.769531 -15.53125 5.40625 -13.625 Z M 5.40625 -13.625 "/></g></g></g><g fill="#000002" fill-opacity="1"><g transform="translate(109.567442, 35.504761)"><g/></g></g><g fill="#000002" fill-opacity="1"><g transform="translate(122.101388, 35.504761)"><g><path d="M 5.046875 -5.765625 L 5.046875 -19.65625 L 1.21875 -19.65625 L 1.21875 -22.515625 L 5.046875 -22.515625 L 5.046875 -28.609375 L 8.71875 -28.609375 L 8.71875 -22.515625 L 14.078125 -22.515625 L 14.078125 -19.65625 L 8.71875 -19.65625 L 8.71875 -6.03125 C 8.71875 -3.738281 9.75 -2.59375 11.8125 -2.59375 C 12.414062 -2.59375 13.003906 -2.679688 13.578125 -2.859375 L 13.890625 0.1875 C 13.078125 0.488281 12.109375 0.640625 10.984375 0.640625 C 9.171875 0.640625 7.726562 0.101562 6.65625 -0.96875 C 5.582031 -2.050781 5.046875 -3.648438 5.046875 -5.765625 Z M 5.046875 -5.765625 "/></g></g></g><g fill="#000002" fill-opacity="1"><g transform="translate(136.951381, 35.504761)"><g><path d="M 5.234375 -2.609375 C 2.953125 -4.773438 1.8125 -7.660156 1.8125 -11.265625 C 1.8125 -14.867188 2.953125 -17.75 5.234375 -19.90625 C 7.523438 -22.070312 10.304688 -23.15625 13.578125 -23.15625 C 16.847656 -23.15625 19.628906 -22.070312 21.921875 -19.90625 C 24.222656 -17.75 25.375 -14.867188 25.375 -11.265625 C 25.375 -7.660156 24.222656 -4.773438 21.921875 -2.609375 C 19.628906 -0.441406 16.847656 0.640625 13.578125 0.640625 C 10.304688 0.640625 7.523438 -0.441406 5.234375 -2.609375 Z M 19.359375 -5.09375 C 20.921875 -6.71875 21.703125 -8.769531 21.703125 -11.25 C 21.703125 -13.738281 20.921875 -15.789062 19.359375 -17.40625 C 17.804688 -19.03125 15.878906 -19.84375 13.578125 -19.84375 C 11.304688 -19.84375 9.390625 -19.03125 7.828125 -17.40625 C 6.273438 -15.789062 5.5 -13.738281 5.5 -11.25 C 5.5 -8.769531 6.273438 -6.71875 7.828125 -5.09375 C 9.390625 -3.476562 11.304688 -2.671875 13.578125 -2.671875 C 15.878906 -2.671875 17.804688 -3.476562 19.359375 -5.09375 Z M 19.359375 -5.09375 "/></g></g></g><g fill="#000002" fill-opacity="1"><g transform="translate(164.153662, 35.504761)"><g/></g></g><g fill="#000002" fill-opacity="1"><g transform="translate(176.687609, 35.504761)"><g><path d="M 3.265625 0 L 3.265625 -22.515625 L 6.90625 -22.515625 L 6.90625 0 Z M 2.90625 -26.46875 L 2.90625 -30.875 L 7.21875 -30.875 L 7.21875 -26.46875 Z M 2.90625 -26.46875 "/></g></g></g><g fill="#000002" fill-opacity="1"><g transform="translate(186.860082, 35.504761)"><g><path d="M 3.265625 0 L 3.265625 -22.515625 L 6.90625 -22.515625 L 6.90625 -18.53125 C 7.75 -19.976562 8.859375 -21.109375 10.234375 -21.921875 C 11.617188 -22.742188 13.113281 -23.15625 14.71875 -23.15625 C 17.070312 -23.15625 18.972656 -22.472656 20.421875 -21.109375 C 21.878906 -19.753906 22.609375 -17.816406 22.609375 -15.296875 L 22.609375 0 L 18.984375 0 L 18.984375 -14.34375 C 18.984375 -16.039062 18.484375 -17.378906 17.484375 -18.359375 C 16.484375 -19.347656 15.148438 -19.84375 13.484375 -19.84375 C 11.703125 -19.84375 10.160156 -19.113281 8.859375 -17.65625 C 7.554688 -16.207031 6.90625 -14.425781 6.90625 -12.3125 L 6.90625 0 Z M 3.265625 0 "/></g></g></g><g fill="#000002" fill-opacity="1"><g transform="translate(212.745396, 35.504761)"><g><path d="M 9.40625 0 L 0.359375 -22.515625 L 4.265625 -22.515625 L 11.21875 -4.359375 L 18.15625 -22.515625 L 22.0625 -22.515625 L 13.03125 0 Z M 9.40625 0 "/></g></g></g><g fill="#000002" fill-opacity="1"><g transform="translate(234.407309, 35.504761)"><g><path d="M 5.234375 -2.609375 C 2.953125 -4.773438 1.8125 -7.660156 1.8125 -11.265625 C 1.8125 -14.867188 2.953125 -17.75 5.234375 -19.90625 C 7.523438 -22.070312 10.304688 -23.15625 13.578125 -23.15625 C 16.847656 -23.15625 19.628906 -22.070312 21.921875 -19.90625 C 24.222656 -17.75 25.375 -14.867188 25.375 -11.265625 C 25.375 -7.660156 24.222656 -4.773438 21.921875 -2.609375 C 19.628906 -0.441406 16.847656 0.640625 13.578125 0.640625 C 10.304688 0.640625 7.523438 -0.441406 5.234375 -2.609375 Z M 19.359375 -5.09375 C 20.921875 -6.71875 21.703125 -8.769531 21.703125 -11.25 C 21.703125 -13.738281 20.921875 -15.789062 19.359375 -17.40625 C 17.804688 -19.03125 15.878906 -19.84375 13.578125 -19.84375 C 11.304688 -19.84375 9.390625 -19.03125 7.828125 -17.40625 C 6.273438 -15.789062 5.5 -13.738281 5.5 -11.25 C 5.5 -8.769531 6.273438 -6.71875 7.828125 -5.09375 C 9.390625 -3.476562 11.304688 -2.671875 13.578125 -2.671875 C 15.878906 -2.671875 17.804688 -3.476562 19.359375 -5.09375 Z M 19.359375 -5.09375 "/></g></g></g><g fill="#000002" fill-opacity="1"><g transform="translate(261.38253, 35.504761)"><g><path d="M 3.265625 0 L 3.265625 -22.515625 L 6.90625 -22.515625 L 6.90625 0 Z M 2.90625 -26.46875 L 2.90625 -30.875 L 7.21875 -30.875 L 7.21875 -26.46875 Z M 2.90625 -26.46875 "/></g></g></g><g fill="#000002" fill-opacity="1"><g transform="translate(271.327931, 35.504761)"><g><path d="M 1.8125 -11.265625 C 1.78125 -14.617188 2.914062 -17.453125 5.21875 -19.765625 C 7.519531 -22.085938 10.226562 -23.21875 13.34375 -23.15625 C 18.007812 -23.15625 21.265625 -21.265625 23.109375 -17.484375 L 20.15625 -15.671875 C 18.675781 -18.421875 16.421875 -19.796875 13.390625 -19.796875 C 11.148438 -19.796875 9.28125 -19.007812 7.78125 -17.4375 C 6.289062 -15.863281 5.546875 -13.804688 5.546875 -11.265625 C 5.546875 -8.742188 6.285156 -6.6875 7.765625 -5.09375 C 9.242188 -3.507812 11.117188 -2.71875 13.390625 -2.71875 C 16.359375 -2.71875 18.675781 -4.097656 20.34375 -6.859375 L 23.109375 -5.078125 C 20.929688 -1.265625 17.675781 0.640625 13.34375 0.640625 C 10.050781 0.640625 7.304688 -0.476562 5.109375 -2.71875 C 2.910156 -4.957031 1.8125 -7.804688 1.8125 -11.265625 Z M 1.8125 -11.265625 "/></g></g></g><g fill="#000002" fill-opacity="1"><g transform="translate(295.714634, 35.504761)"><g><path d="M 1.8125 -11.265625 C 1.78125 -14.648438 2.878906 -17.492188 5.109375 -19.796875 C 7.335938 -22.097656 10.023438 -23.21875 13.171875 -23.15625 C 16.441406 -23.15625 19.054688 -22.109375 21.015625 -20.015625 C 22.984375 -17.929688 23.96875 -15.222656 23.96875 -11.890625 L 23.96875 -10.671875 L 5.40625 -10.671875 C 5.550781 -8.273438 6.304688 -6.320312 7.671875 -4.8125 C 9.097656 -3.269531 10.914062 -2.5 13.125 -2.5 C 16.539062 -2.5 19.035156 -4.175781 20.609375 -7.53125 L 23.34375 -5.953125 C 21.1875 -1.554688 17.734375 0.640625 12.984375 0.640625 C 9.867188 0.640625 7.226562 -0.484375 5.0625 -2.734375 C 2.894531 -4.992188 1.8125 -7.835938 1.8125 -11.265625 Z M 5.40625 -13.625 L 20.296875 -13.625 C 20.171875 -15.65625 19.4375 -17.257812 18.09375 -18.4375 C 16.75 -19.613281 15.09375 -20.203125 13.125 -20.203125 C 11.21875 -20.203125 9.546875 -19.582031 8.109375 -18.34375 C 6.671875 -17.101562 5.769531 -15.53125 5.40625 -13.625 Z M 5.40625 -13.625 "/></g></g></g></g></g></svg>